<mxfile host="Electron" modified="2024-02-05T12:39:51.529Z" agent="Mozilla/5.0 (Macintosh; Intel Mac OS X 10_15_7) AppleWebKit/537.36 (KHTML, like Gecko) draw.io/22.0.3 Chrome/114.0.5735.289 Electron/25.8.4 Safari/537.36" etag="XCfew1nIvQhcciOgE1za" version="22.0.3" type="device">
  <diagram name="Seite-1" id="l8lG7WZvgsQj0xLtzc5O">
    <mxGraphModel dx="1969" dy="771" grid="1" gridSize="10" guides="1" tooltips="1" connect="1" arrows="1" fold="1" page="1" pageScale="1" pageWidth="1169" pageHeight="827" math="0" shadow="0">
      <root>
        <mxCell id="0" />
        <mxCell id="1" parent="0" />
        <mxCell id="WOGi3b66bUbtxr1Sp4FL-76" value="" style="rounded=0;whiteSpace=wrap;html=1;fillColor=none;" parent="1" vertex="1">
          <mxGeometry x="240" y="590" width="140" height="200" as="geometry" />
        </mxCell>
        <mxCell id="WOGi3b66bUbtxr1Sp4FL-75" value="" style="rounded=0;whiteSpace=wrap;html=1;fillColor=none;" parent="1" vertex="1">
          <mxGeometry x="80" y="590" width="140" height="200" as="geometry" />
        </mxCell>
        <mxCell id="WOGi3b66bUbtxr1Sp4FL-1" value="" style="endArrow=block;html=1;rounded=0;strokeWidth=3;endFill=1;strokeColor=#3333FF;" parent="1" edge="1">
          <mxGeometry width="50" height="50" relative="1" as="geometry">
            <mxPoint x="80" y="540" as="sourcePoint" />
            <mxPoint x="80" y="60" as="targetPoint" />
          </mxGeometry>
        </mxCell>
        <mxCell id="WOGi3b66bUbtxr1Sp4FL-2" value="" style="endArrow=block;html=1;rounded=0;strokeWidth=3;endFill=1;strokeColor=#3333FF;" parent="1" edge="1">
          <mxGeometry width="50" height="50" relative="1" as="geometry">
            <mxPoint x="80" y="540" as="sourcePoint" />
            <mxPoint x="590" y="540" as="targetPoint" />
          </mxGeometry>
        </mxCell>
        <mxCell id="WOGi3b66bUbtxr1Sp4FL-3" value="Einfluss" style="text;html=1;strokeColor=none;fillColor=none;align=center;verticalAlign=middle;whiteSpace=wrap;rounded=0;fontColor=#3333FF;fontSize=20;fontStyle=1" parent="1" vertex="1">
          <mxGeometry x="50" y="30" width="60" height="30" as="geometry" />
        </mxCell>
        <mxCell id="WOGi3b66bUbtxr1Sp4FL-4" value="Einstellung" style="text;html=1;strokeColor=none;fillColor=none;align=center;verticalAlign=middle;whiteSpace=wrap;rounded=0;fontColor=#3333FF;fontSize=20;fontStyle=1" parent="1" vertex="1">
          <mxGeometry x="620" y="524" width="60" height="30" as="geometry" />
        </mxCell>
        <mxCell id="WOGi3b66bUbtxr1Sp4FL-5" value="" style="endArrow=none;html=1;rounded=0;fontColor=#CCCCCC;strokeColor=#999999;" parent="1" edge="1">
          <mxGeometry width="50" height="50" relative="1" as="geometry">
            <mxPoint x="340" y="540" as="sourcePoint" />
            <mxPoint x="340" y="60" as="targetPoint" />
          </mxGeometry>
        </mxCell>
        <mxCell id="WOGi3b66bUbtxr1Sp4FL-6" value="" style="endArrow=none;html=1;rounded=0;fontColor=#CCCCCC;strokeColor=#999999;" parent="1" edge="1">
          <mxGeometry width="50" height="50" relative="1" as="geometry">
            <mxPoint x="80" y="300" as="sourcePoint" />
            <mxPoint x="590" y="300" as="targetPoint" />
          </mxGeometry>
        </mxCell>
        <mxCell id="WOGi3b66bUbtxr1Sp4FL-7" value="MINT FakultÃ¤ten" style="ellipse;whiteSpace=wrap;html=1;aspect=fixed;fillColor=#000000;fontColor=#FFFFFF;" parent="1" vertex="1">
          <mxGeometry x="290" y="250" width="80" height="80" as="geometry" />
        </mxCell>
        <mxCell id="WOGi3b66bUbtxr1Sp4FL-8" value="Negativ" style="text;html=1;strokeColor=none;fillColor=none;align=center;verticalAlign=middle;whiteSpace=wrap;rounded=0;fontStyle=1" parent="1" vertex="1">
          <mxGeometry x="80" y="540" width="60" height="30" as="geometry" />
        </mxCell>
        <mxCell id="WOGi3b66bUbtxr1Sp4FL-9" value="Positiv" style="text;html=1;strokeColor=none;fillColor=none;align=center;verticalAlign=middle;whiteSpace=wrap;rounded=0;fontStyle=1" parent="1" vertex="1">
          <mxGeometry x="520" y="540" width="60" height="30" as="geometry" />
        </mxCell>
        <mxCell id="WOGi3b66bUbtxr1Sp4FL-10" value="Neutral" style="text;html=1;strokeColor=none;fillColor=none;align=center;verticalAlign=middle;whiteSpace=wrap;rounded=0;fontStyle=1" parent="1" vertex="1">
          <mxGeometry x="310" y="540" width="60" height="30" as="geometry" />
        </mxCell>
        <mxCell id="WOGi3b66bUbtxr1Sp4FL-11" value="Niedrig" style="text;html=1;strokeColor=none;fillColor=none;align=center;verticalAlign=middle;whiteSpace=wrap;rounded=0;fontStyle=1" parent="1" vertex="1">
          <mxGeometry x="20" y="510" width="60" height="30" as="geometry" />
        </mxCell>
        <mxCell id="WOGi3b66bUbtxr1Sp4FL-12" value="Hoch" style="text;html=1;strokeColor=none;fillColor=none;align=center;verticalAlign=middle;whiteSpace=wrap;rounded=0;fontStyle=1" parent="1" vertex="1">
          <mxGeometry x="20" y="70" width="60" height="30" as="geometry" />
        </mxCell>
        <mxCell id="WOGi3b66bUbtxr1Sp4FL-13" value="1" style="text;html=1;strokeColor=none;fillColor=none;align=center;verticalAlign=middle;whiteSpace=wrap;rounded=0;" parent="1" vertex="1">
          <mxGeometry x="50" y="460" width="30" height="30" as="geometry" />
        </mxCell>
        <mxCell id="WOGi3b66bUbtxr1Sp4FL-14" value="2" style="text;html=1;strokeColor=none;fillColor=none;align=center;verticalAlign=middle;whiteSpace=wrap;rounded=0;" parent="1" vertex="1">
          <mxGeometry x="50" y="420" width="30" height="30" as="geometry" />
        </mxCell>
        <mxCell id="WOGi3b66bUbtxr1Sp4FL-15" value="3" style="text;html=1;strokeColor=none;fillColor=none;align=center;verticalAlign=middle;whiteSpace=wrap;rounded=0;" parent="1" vertex="1">
          <mxGeometry x="50" y="380" width="30" height="30" as="geometry" />
        </mxCell>
        <mxCell id="WOGi3b66bUbtxr1Sp4FL-16" value="4" style="text;html=1;strokeColor=none;fillColor=none;align=center;verticalAlign=middle;whiteSpace=wrap;rounded=0;" parent="1" vertex="1">
          <mxGeometry x="50" y="338" width="30" height="30" as="geometry" />
        </mxCell>
        <mxCell id="WOGi3b66bUbtxr1Sp4FL-17" value="5" style="text;html=1;strokeColor=none;fillColor=none;align=center;verticalAlign=middle;whiteSpace=wrap;rounded=0;" parent="1" vertex="1">
          <mxGeometry x="50" y="300" width="30" height="30" as="geometry" />
        </mxCell>
        <mxCell id="WOGi3b66bUbtxr1Sp4FL-18" value="6" style="text;html=1;strokeColor=none;fillColor=none;align=center;verticalAlign=middle;whiteSpace=wrap;rounded=0;" parent="1" vertex="1">
          <mxGeometry x="50" y="260" width="30" height="30" as="geometry" />
        </mxCell>
        <mxCell id="WOGi3b66bUbtxr1Sp4FL-19" value="7" style="text;html=1;strokeColor=none;fillColor=none;align=center;verticalAlign=middle;whiteSpace=wrap;rounded=0;" parent="1" vertex="1">
          <mxGeometry x="50" y="220" width="30" height="30" as="geometry" />
        </mxCell>
        <mxCell id="WOGi3b66bUbtxr1Sp4FL-20" value="8" style="text;html=1;strokeColor=none;fillColor=none;align=center;verticalAlign=middle;whiteSpace=wrap;rounded=0;" parent="1" vertex="1">
          <mxGeometry x="50" y="180" width="30" height="30" as="geometry" />
        </mxCell>
        <mxCell id="WOGi3b66bUbtxr1Sp4FL-21" value="9" style="text;html=1;strokeColor=none;fillColor=none;align=center;verticalAlign=middle;whiteSpace=wrap;rounded=0;" parent="1" vertex="1">
          <mxGeometry x="50" y="140" width="30" height="30" as="geometry" />
        </mxCell>
        <mxCell id="WOGi3b66bUbtxr1Sp4FL-22" value="10" style="text;html=1;strokeColor=none;fillColor=none;align=center;verticalAlign=middle;whiteSpace=wrap;rounded=0;" parent="1" vertex="1">
          <mxGeometry x="50" y="100" width="30" height="30" as="geometry" />
        </mxCell>
        <mxCell id="WOGi3b66bUbtxr1Sp4FL-23" value="1" style="text;html=1;strokeColor=none;fillColor=none;align=center;verticalAlign=middle;whiteSpace=wrap;rounded=0;" parent="1" vertex="1">
          <mxGeometry x="130" y="540" width="30" height="30" as="geometry" />
        </mxCell>
        <mxCell id="WOGi3b66bUbtxr1Sp4FL-24" value="2" style="text;html=1;strokeColor=none;fillColor=none;align=center;verticalAlign=middle;whiteSpace=wrap;rounded=0;" parent="1" vertex="1">
          <mxGeometry x="170" y="540" width="30" height="30" as="geometry" />
        </mxCell>
        <mxCell id="WOGi3b66bUbtxr1Sp4FL-25" value="3" style="text;html=1;strokeColor=none;fillColor=none;align=center;verticalAlign=middle;whiteSpace=wrap;rounded=0;" parent="1" vertex="1">
          <mxGeometry x="210" y="540" width="30" height="30" as="geometry" />
        </mxCell>
        <mxCell id="WOGi3b66bUbtxr1Sp4FL-26" value="4" style="text;html=1;strokeColor=none;fillColor=none;align=center;verticalAlign=middle;whiteSpace=wrap;rounded=0;" parent="1" vertex="1">
          <mxGeometry x="250" y="540" width="30" height="30" as="geometry" />
        </mxCell>
        <mxCell id="WOGi3b66bUbtxr1Sp4FL-27" value="7" style="text;html=1;strokeColor=none;fillColor=none;align=center;verticalAlign=middle;whiteSpace=wrap;rounded=0;" parent="1" vertex="1">
          <mxGeometry x="370" y="540" width="30" height="30" as="geometry" />
        </mxCell>
        <mxCell id="WOGi3b66bUbtxr1Sp4FL-28" value="8" style="text;html=1;strokeColor=none;fillColor=none;align=center;verticalAlign=middle;whiteSpace=wrap;rounded=0;" parent="1" vertex="1">
          <mxGeometry x="410" y="540" width="30" height="30" as="geometry" />
        </mxCell>
        <mxCell id="WOGi3b66bUbtxr1Sp4FL-29" value="9" style="text;html=1;strokeColor=none;fillColor=none;align=center;verticalAlign=middle;whiteSpace=wrap;rounded=0;" parent="1" vertex="1">
          <mxGeometry x="450" y="540" width="30" height="30" as="geometry" />
        </mxCell>
        <mxCell id="WOGi3b66bUbtxr1Sp4FL-30" value="10" style="text;html=1;strokeColor=none;fillColor=none;align=center;verticalAlign=middle;whiteSpace=wrap;rounded=0;" parent="1" vertex="1">
          <mxGeometry x="490" y="540" width="30" height="30" as="geometry" />
        </mxCell>
        <mxCell id="WOGi3b66bUbtxr1Sp4FL-31" value="5" style="text;html=1;strokeColor=none;fillColor=none;align=center;verticalAlign=middle;whiteSpace=wrap;rounded=0;" parent="1" vertex="1">
          <mxGeometry x="290" y="540" width="30" height="30" as="geometry" />
        </mxCell>
        <mxCell id="WOGi3b66bUbtxr1Sp4FL-32" value="FuÃgÃ¤nger" style="ellipse;whiteSpace=wrap;html=1;fillColor=#B3B3B3;fontColor=#333333;strokeColor=none;" parent="1" vertex="1">
          <mxGeometry x="187.5" y="315.5" width="75" height="75" as="geometry" />
        </mxCell>
        <mxCell id="WOGi3b66bUbtxr1Sp4FL-34" value="&lt;span style=&quot;color: rgb(0, 0, 0);&quot;&gt;DHBW&lt;/span&gt;" style="ellipse;whiteSpace=wrap;html=1;fillColor=#B3B3B3;fontColor=#333333;strokeColor=none;" parent="1" vertex="1">
          <mxGeometry x="460" y="250" width="80" height="80" as="geometry" />
        </mxCell>
        <mxCell id="WOGi3b66bUbtxr1Sp4FL-35" value="&lt;font style=&quot;font-size: 8px;&quot;&gt;Studiengangs-&lt;br&gt;leitung&lt;/font&gt;" style="ellipse;whiteSpace=wrap;html=1;aspect=fixed;strokeColor=#999999;" parent="1" vertex="1">
          <mxGeometry x="362.5" y="390.5" width="65" height="65" as="geometry" />
        </mxCell>
        <mxCell id="WOGi3b66bUbtxr1Sp4FL-36" value="Externe&lt;br&gt;Betreuung" style="ellipse;whiteSpace=wrap;html=1;aspect=fixed;fontColor=#FFFFFF;fillColor=#000000;" parent="1" vertex="1">
          <mxGeometry x="340" y="140" width="110" height="110" as="geometry" />
        </mxCell>
        <mxCell id="WOGi3b66bUbtxr1Sp4FL-37" value="&lt;span style=&quot;font-size: 8px;&quot;&gt;FabLab&lt;/span&gt;" style="ellipse;whiteSpace=wrap;html=1;aspect=fixed;strokeColor=none;fillColor=#B3B3B3;" parent="1" vertex="1">
          <mxGeometry x="330" y="70" width="49.5" height="49.5" as="geometry" />
        </mxCell>
        <mxCell id="WOGi3b66bUbtxr1Sp4FL-38" value="Dozenten" style="ellipse;whiteSpace=wrap;html=1;strokeColor=#808080;" parent="1" vertex="1">
          <mxGeometry x="400" y="464" width="60" height="60" as="geometry" />
        </mxCell>
        <mxCell id="WOGi3b66bUbtxr1Sp4FL-39" value="Entwicklungsteam" style="ellipse;whiteSpace=wrap;html=1;aspect=fixed;fontColor=#FFFFFF;fillColor=#000000;" parent="1" vertex="1">
          <mxGeometry x="450" y="45" width="140" height="140" as="geometry" />
        </mxCell>
        <mxCell id="WOGi3b66bUbtxr1Sp4FL-42" value="" style="endArrow=classic;html=1;rounded=0;entryX=1;entryY=0.5;entryDx=0;entryDy=0;edgeStyle=orthogonalEdgeStyle;curved=1;strokeWidth=1;dashed=1;strokeColor=#B3B3B3;" parent="1" source="WOGi3b66bUbtxr1Sp4FL-34" target="WOGi3b66bUbtxr1Sp4FL-32" edge="1">
          <mxGeometry width="50" height="50" relative="1" as="geometry">
            <mxPoint x="700" y="360" as="sourcePoint" />
            <mxPoint x="750" y="310" as="targetPoint" />
            <Array as="points">
              <mxPoint x="410" y="290" />
              <mxPoint x="410" y="353" />
            </Array>
          </mxGeometry>
        </mxCell>
        <mxCell id="WOGi3b66bUbtxr1Sp4FL-44" value="" style="endArrow=classic;html=1;rounded=0;entryX=0.5;entryY=1;entryDx=0;entryDy=0;edgeStyle=orthogonalEdgeStyle;curved=1;strokeWidth=3;dashed=1;strokeColor=#B3B3B3;dashPattern=1 4;exitX=0.98;exitY=0.695;exitDx=0;exitDy=0;exitPerimeter=0;" parent="1" source="WOGi3b66bUbtxr1Sp4FL-36" target="WOGi3b66bUbtxr1Sp4FL-39" edge="1">
          <mxGeometry width="50" height="50" relative="1" as="geometry">
            <mxPoint x="720" y="270" as="sourcePoint" />
            <mxPoint x="770" y="220" as="targetPoint" />
            <Array as="points">
              <mxPoint x="448" y="230" />
              <mxPoint x="520" y="230" />
            </Array>
          </mxGeometry>
        </mxCell>
        <mxCell id="WOGi3b66bUbtxr1Sp4FL-45" value="" style="endArrow=classic;html=1;rounded=0;exitX=1;exitY=0.5;exitDx=0;exitDy=0;entryX=-0.001;entryY=0.422;entryDx=0;entryDy=0;entryPerimeter=0;strokeWidth=2;dashed=1;dashPattern=1 2;strokeColor=#B3B3B3;" parent="1" source="WOGi3b66bUbtxr1Sp4FL-37" target="WOGi3b66bUbtxr1Sp4FL-39" edge="1">
          <mxGeometry width="50" height="50" relative="1" as="geometry">
            <mxPoint x="770" y="250" as="sourcePoint" />
            <mxPoint x="820" y="200" as="targetPoint" />
          </mxGeometry>
        </mxCell>
        <mxCell id="WOGi3b66bUbtxr1Sp4FL-48" value="" style="endArrow=classic;html=1;rounded=0;exitX=0;exitY=1;exitDx=0;exitDy=0;entryX=0.793;entryY=0.06;entryDx=0;entryDy=0;entryPerimeter=0;strokeWidth=3;dashed=1;dashPattern=1 4;strokeColor=#B3B3B3;" parent="1" source="WOGi3b66bUbtxr1Sp4FL-34" target="WOGi3b66bUbtxr1Sp4FL-35" edge="1">
          <mxGeometry width="50" height="50" relative="1" as="geometry">
            <mxPoint x="540" y="410" as="sourcePoint" />
            <mxPoint x="590" y="360" as="targetPoint" />
          </mxGeometry>
        </mxCell>
        <mxCell id="WOGi3b66bUbtxr1Sp4FL-49" value="" style="endArrow=classic;html=1;rounded=0;exitX=1.005;exitY=0.432;exitDx=0;exitDy=0;entryX=1;entryY=0.5;entryDx=0;entryDy=0;strokeWidth=2;dashed=1;dashPattern=1 2;exitPerimeter=0;edgeStyle=orthogonalEdgeStyle;curved=1;strokeColor=#B3B3B3;" parent="1" source="WOGi3b66bUbtxr1Sp4FL-35" target="WOGi3b66bUbtxr1Sp4FL-38" edge="1">
          <mxGeometry width="50" height="50" relative="1" as="geometry">
            <mxPoint x="568" y="385" as="sourcePoint" />
            <mxPoint x="510" y="461" as="targetPoint" />
            <Array as="points">
              <mxPoint x="428" y="420" />
              <mxPoint x="520" y="420" />
              <mxPoint x="520" y="494" />
            </Array>
          </mxGeometry>
        </mxCell>
        <mxCell id="WOGi3b66bUbtxr1Sp4FL-51" value="" style="endArrow=classic;html=1;rounded=0;exitX=1;exitY=0;exitDx=0;exitDy=0;entryX=1;entryY=0.5;entryDx=0;entryDy=0;edgeStyle=orthogonalEdgeStyle;curved=1;strokeWidth=2;dashed=1;dashPattern=1 2;strokeColor=#B3B3B3;" parent="1" source="WOGi3b66bUbtxr1Sp4FL-34" target="WOGi3b66bUbtxr1Sp4FL-39" edge="1">
          <mxGeometry width="50" height="50" relative="1" as="geometry">
            <mxPoint x="640" y="320" as="sourcePoint" />
            <mxPoint x="690" y="270" as="targetPoint" />
            <Array as="points">
              <mxPoint x="540" y="262" />
              <mxPoint x="540" y="218" />
              <mxPoint x="660" y="218" />
              <mxPoint x="660" y="115" />
            </Array>
          </mxGeometry>
        </mxCell>
        <mxCell id="WOGi3b66bUbtxr1Sp4FL-54" value="" style="ellipse;whiteSpace=wrap;html=1;aspect=fixed;fillColor=#000000;" parent="1" vertex="1">
          <mxGeometry x="110" y="640" width="30" height="30" as="geometry" />
        </mxCell>
        <mxCell id="WOGi3b66bUbtxr1Sp4FL-55" value="" style="ellipse;whiteSpace=wrap;html=1;aspect=fixed;fillColor=#B3B3B3;strokeColor=#B3B3B3;" parent="1" vertex="1">
          <mxGeometry x="110" y="690" width="30" height="30" as="geometry" />
        </mxCell>
        <mxCell id="WOGi3b66bUbtxr1Sp4FL-56" value="" style="ellipse;whiteSpace=wrap;html=1;aspect=fixed;strokeColor=#B3B3B3;" parent="1" vertex="1">
          <mxGeometry x="110" y="740" width="30" height="30" as="geometry" />
        </mxCell>
        <mxCell id="WOGi3b66bUbtxr1Sp4FL-57" value="" style="ellipse;whiteSpace=wrap;html=1;aspect=fixed;strokeColor=#B3B3B3;" parent="1" vertex="1">
          <mxGeometry x="250" y="630" width="50" height="50" as="geometry" />
        </mxCell>
        <mxCell id="WOGi3b66bUbtxr1Sp4FL-58" value="" style="ellipse;whiteSpace=wrap;html=1;aspect=fixed;strokeColor=#B3B3B3;" parent="1" vertex="1">
          <mxGeometry x="255" y="690" width="40" height="40" as="geometry" />
        </mxCell>
        <mxCell id="WOGi3b66bUbtxr1Sp4FL-59" value="" style="ellipse;whiteSpace=wrap;html=1;aspect=fixed;strokeColor=#B3B3B3;" parent="1" vertex="1">
          <mxGeometry x="260" y="740" width="30" height="30" as="geometry" />
        </mxCell>
        <mxCell id="WOGi3b66bUbtxr1Sp4FL-60" value="" style="endArrow=classic;html=1;rounded=0;strokeWidth=3;dashed=1;dashPattern=1 4;strokeColor=#999999;" parent="1" edge="1">
          <mxGeometry width="50" height="50" relative="1" as="geometry">
            <mxPoint x="414.5" y="654.66" as="sourcePoint" />
            <mxPoint x="475" y="654.66" as="targetPoint" />
          </mxGeometry>
        </mxCell>
        <mxCell id="WOGi3b66bUbtxr1Sp4FL-61" value="" style="endArrow=classic;html=1;rounded=0;strokeWidth=2;dashed=1;dashPattern=1 2;strokeColor=#999999;" parent="1" edge="1">
          <mxGeometry width="50" height="50" relative="1" as="geometry">
            <mxPoint x="414.5" y="709.66" as="sourcePoint" />
            <mxPoint x="475" y="709.66" as="targetPoint" />
          </mxGeometry>
        </mxCell>
        <mxCell id="WOGi3b66bUbtxr1Sp4FL-62" value="" style="endArrow=classic;html=1;rounded=0;dashed=1;strokeColor=#999999;" parent="1" edge="1">
          <mxGeometry width="50" height="50" relative="1" as="geometry">
            <mxPoint x="414.5" y="754.66" as="sourcePoint" />
            <mxPoint x="475" y="754.66" as="targetPoint" />
          </mxGeometry>
        </mxCell>
        <mxCell id="WOGi3b66bUbtxr1Sp4FL-63" value="Hoch" style="text;html=1;strokeColor=none;fillColor=none;align=center;verticalAlign=middle;whiteSpace=wrap;rounded=0;" parent="1" vertex="1">
          <mxGeometry x="145" y="640" width="60" height="30" as="geometry" />
        </mxCell>
        <mxCell id="WOGi3b66bUbtxr1Sp4FL-64" value="Mittel" style="text;html=1;strokeColor=none;fillColor=none;align=center;verticalAlign=middle;whiteSpace=wrap;rounded=0;" parent="1" vertex="1">
          <mxGeometry x="145" y="690" width="60" height="30" as="geometry" />
        </mxCell>
        <mxCell id="WOGi3b66bUbtxr1Sp4FL-65" value="Niedrig" style="text;html=1;strokeColor=none;fillColor=none;align=center;verticalAlign=middle;whiteSpace=wrap;rounded=0;" parent="1" vertex="1">
          <mxGeometry x="145" y="740" width="60" height="30" as="geometry" />
        </mxCell>
        <mxCell id="WOGi3b66bUbtxr1Sp4FL-66" value="Hoch" style="text;html=1;strokeColor=none;fillColor=none;align=center;verticalAlign=middle;whiteSpace=wrap;rounded=0;" parent="1" vertex="1">
          <mxGeometry x="310" y="640" width="60" height="30" as="geometry" />
        </mxCell>
        <mxCell id="WOGi3b66bUbtxr1Sp4FL-67" value="Mittel" style="text;html=1;strokeColor=none;fillColor=none;align=center;verticalAlign=middle;whiteSpace=wrap;rounded=0;" parent="1" vertex="1">
          <mxGeometry x="310" y="695" width="60" height="30" as="geometry" />
        </mxCell>
        <mxCell id="WOGi3b66bUbtxr1Sp4FL-68" value="Gering" style="text;html=1;strokeColor=none;fillColor=none;align=center;verticalAlign=middle;whiteSpace=wrap;rounded=0;" parent="1" vertex="1">
          <mxGeometry x="310" y="740" width="60" height="30" as="geometry" />
        </mxCell>
        <mxCell id="WOGi3b66bUbtxr1Sp4FL-69" value="Hoch" style="text;html=1;strokeColor=none;fillColor=none;align=center;verticalAlign=middle;whiteSpace=wrap;rounded=0;" parent="1" vertex="1">
          <mxGeometry x="475" y="640" width="60" height="30" as="geometry" />
        </mxCell>
        <mxCell id="WOGi3b66bUbtxr1Sp4FL-70" value="Mittel" style="text;html=1;strokeColor=none;fillColor=none;align=center;verticalAlign=middle;whiteSpace=wrap;rounded=0;" parent="1" vertex="1">
          <mxGeometry x="475" y="695" width="60" height="30" as="geometry" />
        </mxCell>
        <mxCell id="WOGi3b66bUbtxr1Sp4FL-71" value="Gering" style="text;html=1;strokeColor=none;fillColor=none;align=center;verticalAlign=middle;whiteSpace=wrap;rounded=0;" parent="1" vertex="1">
          <mxGeometry x="475" y="740" width="60" height="30" as="geometry" />
        </mxCell>
        <mxCell id="WOGi3b66bUbtxr1Sp4FL-72" value="Einbindungsgrad" style="text;html=1;strokeColor=none;fillColor=none;align=center;verticalAlign=middle;whiteSpace=wrap;rounded=0;fontColor=#3333FF;fontSize=14;fontStyle=1" parent="1" vertex="1">
          <mxGeometry x="120" y="600" width="60" height="30" as="geometry" />
        </mxCell>
        <mxCell id="WOGi3b66bUbtxr1Sp4FL-73" value="Interesse" style="text;html=1;strokeColor=none;fillColor=none;align=center;verticalAlign=middle;whiteSpace=wrap;rounded=0;fontColor=#3333FF;fontSize=14;fontStyle=1" parent="1" vertex="1">
          <mxGeometry x="280" y="600" width="60" height="30" as="geometry" />
        </mxCell>
        <mxCell id="WOGi3b66bUbtxr1Sp4FL-74" value="Einfluss aufeinander" style="text;html=1;strokeColor=none;fillColor=none;align=center;verticalAlign=middle;whiteSpace=wrap;rounded=0;fontColor=#3333FF;fontSize=14;fontStyle=1" parent="1" vertex="1">
          <mxGeometry x="405" y="600" width="150" height="30" as="geometry" />
        </mxCell>
        <mxCell id="WOGi3b66bUbtxr1Sp4FL-77" value="" style="rounded=0;whiteSpace=wrap;html=1;fillColor=none;" parent="1" vertex="1">
          <mxGeometry x="400" y="590" width="160" height="200" as="geometry" />
        </mxCell>
      </root>
    </mxGraphModel>
  </diagram>
</mxfile>
